<svg xmlns="http://www.w3.org/2000/svg" width="1080" height="680" viewBox="0 0 1080 680">
    <rect width="1080" height="680" fill="#F7F2E8"/>
    <rect x="30" y="30" width="1020" height="620" rx="6" fill="none" stroke="#C8A24B" stroke-width="2"/>
    <rect x="40" y="40" width="1000" height="600" rx="4" fill="none" stroke="#C8A24B" stroke-width="1" opacity="0.6"/>
    <text x="540" y="116" text-anchor="middle" font-family="Georgia, 'Times New Roman', serif" font-size="26" letter-spacing="10" fill="#C8A24B">SES KODU</text>
    <line x1="480" y1="138" x2="600" y2="138" stroke="#C8A24B" stroke-width="1"/>
    <rect x="204.0" y="283.0" width="9" height="26.0" rx="4.5" fill="#15110A" fill-opacity="0.55"/><rect x="221.0" y="283.0" width="9" height="26.0" rx="4.5" fill="#15110A" fill-opacity="0.55"/><rect x="238.0" y="270.6" width="9" height="50.9" rx="4.5" fill="#15110A" fill-opacity="0.55"/><rect x="255.0" y="220.9" width="9" height="150.3" rx="4.5" fill="#15110A" fill-opacity="1"/><rect x="272.0" y="258.1" width="9" height="75.7" rx="4.5" fill="#15110A" fill-opacity="1"/><rect x="289.0" y="208.4" width="9" height="175.1" rx="4.5" fill="#15110A" fill-opacity="1"/><rect x="306.0" y="245.7" width="9" height="100.6" rx="4.5" fill="#15110A" fill-opacity="1"/><rect x="323.0" y="196.0" width="9" height="200.0" rx="4.5" fill="#15110A" fill-opacity="1"/><rect x="340.0" y="233.3" width="9" height="125.4" rx="4.5" fill="#15110A" fill-opacity="1"/><rect x="357.0" y="270.6" width="9" height="50.9" rx="4.5" fill="#15110A" fill-opacity="1"/><rect x="374.0" y="220.9" width="9" height="150.3" rx="4.5" fill="#15110A" fill-opacity="1"/><rect x="391.0" y="245.7" width="9" height="100.6" rx="4.5" fill="#15110A" fill-opacity="1"/><rect x="408.0" y="208.4" width="9" height="175.1" rx="4.5" fill="#15110A" fill-opacity="1"/><rect x="425.0" y="258.1" width="9" height="75.7" rx="4.5" fill="#15110A" fill-opacity="1"/><rect x="442.0" y="196.0" width="9" height="200.0" rx="4.5" fill="#15110A" fill-opacity="1"/><rect x="459.0" y="233.3" width="9" height="125.4" rx="4.5" fill="#15110A" fill-opacity="1"/><rect x="476.0" y="258.1" width="9" height="75.7" rx="4.5" fill="#15110A" fill-opacity="1"/><rect x="493.0" y="220.9" width="9" height="150.3" rx="4.5" fill="#15110A" fill-opacity="1"/><rect x="510.0" y="245.7" width="9" height="100.6" rx="4.5" fill="#15110A" fill-opacity="1"/><rect x="527.0" y="208.4" width="9" height="175.1" rx="4.5" fill="#15110A" fill-opacity="1"/><rect x="544.0" y="270.6" width="9" height="50.9" rx="4.5" fill="#15110A" fill-opacity="1"/><rect x="561.0" y="233.3" width="9" height="125.4" rx="4.5" fill="#15110A" fill-opacity="1"/><rect x="578.0" y="196.0" width="9" height="200.0" rx="4.5" fill="#15110A" fill-opacity="1"/><rect x="595.0" y="245.7" width="9" height="100.6" rx="4.5" fill="#15110A" fill-opacity="1"/><rect x="612.0" y="220.9" width="9" height="150.3" rx="4.5" fill="#15110A" fill-opacity="1"/><rect x="629.0" y="258.1" width="9" height="75.7" rx="4.5" fill="#15110A" fill-opacity="1"/><rect x="646.0" y="208.4" width="9" height="175.1" rx="4.5" fill="#15110A" fill-opacity="1"/><rect x="663.0" y="233.3" width="9" height="125.4" rx="4.5" fill="#15110A" fill-opacity="1"/><rect x="680.0" y="270.6" width="9" height="50.9" rx="4.5" fill="#15110A" fill-opacity="1"/><rect x="697.0" y="196.0" width="9" height="200.0" rx="4.5" fill="#15110A" fill-opacity="1"/><rect x="714.0" y="245.7" width="9" height="100.6" rx="4.5" fill="#15110A" fill-opacity="1"/><rect x="731.0" y="220.9" width="9" height="150.3" rx="4.5" fill="#15110A" fill-opacity="1"/><rect x="748.0" y="258.1" width="9" height="75.7" rx="4.5" fill="#15110A" fill-opacity="1"/><rect x="765.0" y="208.4" width="9" height="175.1" rx="4.5" fill="#15110A" fill-opacity="1"/><rect x="782.0" y="233.3" width="9" height="125.4" rx="4.5" fill="#15110A" fill-opacity="1"/><rect x="799.0" y="245.7" width="9" height="100.6" rx="4.5" fill="#15110A" fill-opacity="1"/><rect x="816.0" y="220.9" width="9" height="150.3" rx="4.5" fill="#15110A" fill-opacity="1"/><rect x="833.0" y="270.6" width="9" height="50.9" rx="4.5" fill="#15110A" fill-opacity="0.55"/><rect x="850.0" y="283.0" width="9" height="26.0" rx="4.5" fill="#15110A" fill-opacity="0.55"/><rect x="867.0" y="283.0" width="9" height="26.0" rx="4.5" fill="#15110A" fill-opacity="0.55"/>
    <text x="540" y="548" text-anchor="middle" font-family="Georgia, 'Times New Roman', serif" font-size="42" letter-spacing="16" fill="#15110A">A7K29XQ4</text>
    <text x="540" y="592" text-anchor="middle" font-family="Georgia, serif" font-style="italic" font-size="19" fill="#9A8A66">sesini sonsuza taşı</text></svg>