<svg xmlns="http://www.w3.org/2000/svg" width="1080" height="680" viewBox="0 0 1080 680"><defs>
  <radialGradient id="skin" cx="50%" cy="40%" r="85%">
    <stop offset="0%" stop-color="#F1CDA8"/>
    <stop offset="58%" stop-color="#E2B083"/>
    <stop offset="100%" stop-color="#C68E62"/>
  </radialGradient>
  <radialGradient id="vig" cx="50%" cy="42%" r="78%">
    <stop offset="62%" stop-color="#000" stop-opacity="0"/>
    <stop offset="100%" stop-color="#5A3B22" stop-opacity="0.30"/>
  </radialGradient>
  <filter id="ink" x="-5%" y="-5%" width="110%" height="110%"><feGaussianBlur stdDeviation="0.45"/></filter>
</defs><rect width="1080" height="680" fill="url(#skin)"/><rect width="1080" height="680" fill="url(#vig)"/><g filter="url(#ink)" opacity="0.94"><rect x="204.0" y="283.0" width="9" height="26.0" rx="4.5" fill="#211710"/><rect x="221.0" y="283.0" width="9" height="26.0" rx="4.5" fill="#211710"/><rect x="238.0" y="270.6" width="9" height="50.9" rx="4.5" fill="#211710"/><rect x="255.0" y="220.9" width="9" height="150.3" rx="4.5" fill="#211710"/><rect x="272.0" y="258.1" width="9" height="75.7" rx="4.5" fill="#211710"/><rect x="289.0" y="208.4" width="9" height="175.1" rx="4.5" fill="#211710"/><rect x="306.0" y="245.7" width="9" height="100.6" rx="4.5" fill="#211710"/><rect x="323.0" y="196.0" width="9" height="200.0" rx="4.5" fill="#211710"/><rect x="340.0" y="233.3" width="9" height="125.4" rx="4.5" fill="#211710"/><rect x="357.0" y="270.6" width="9" height="50.9" rx="4.5" fill="#211710"/><rect x="374.0" y="220.9" width="9" height="150.3" rx="4.5" fill="#211710"/><rect x="391.0" y="245.7" width="9" height="100.6" rx="4.5" fill="#211710"/><rect x="408.0" y="208.4" width="9" height="175.1" rx="4.5" fill="#211710"/><rect x="425.0" y="258.1" width="9" height="75.7" rx="4.5" fill="#211710"/><rect x="442.0" y="196.0" width="9" height="200.0" rx="4.5" fill="#211710"/><rect x="459.0" y="233.3" width="9" height="125.4" rx="4.5" fill="#211710"/><rect x="476.0" y="258.1" width="9" height="75.7" rx="4.5" fill="#211710"/><rect x="493.0" y="220.9" width="9" height="150.3" rx="4.5" fill="#211710"/><rect x="510.0" y="245.7" width="9" height="100.6" rx="4.5" fill="#211710"/><rect x="527.0" y="208.4" width="9" height="175.1" rx="4.5" fill="#211710"/><rect x="544.0" y="270.6" width="9" height="50.9" rx="4.5" fill="#211710"/><rect x="561.0" y="233.3" width="9" height="125.4" rx="4.5" fill="#211710"/><rect x="578.0" y="196.0" width="9" height="200.0" rx="4.5" fill="#211710"/><rect x="595.0" y="245.7" width="9" height="100.6" rx="4.5" fill="#211710"/><rect x="612.0" y="220.9" width="9" height="150.3" rx="4.5" fill="#211710"/><rect x="629.0" y="258.1" width="9" height="75.7" rx="4.5" fill="#211710"/><rect x="646.0" y="208.4" width="9" height="175.1" rx="4.5" fill="#211710"/><rect x="663.0" y="233.3" width="9" height="125.4" rx="4.5" fill="#211710"/><rect x="680.0" y="270.6" width="9" height="50.9" rx="4.5" fill="#211710"/><rect x="697.0" y="196.0" width="9" height="200.0" rx="4.5" fill="#211710"/><rect x="714.0" y="245.7" width="9" height="100.6" rx="4.5" fill="#211710"/><rect x="731.0" y="220.9" width="9" height="150.3" rx="4.5" fill="#211710"/><rect x="748.0" y="258.1" width="9" height="75.7" rx="4.5" fill="#211710"/><rect x="765.0" y="208.4" width="9" height="175.1" rx="4.5" fill="#211710"/><rect x="782.0" y="233.3" width="9" height="125.4" rx="4.5" fill="#211710"/><rect x="799.0" y="245.7" width="9" height="100.6" rx="4.5" fill="#211710"/><rect x="816.0" y="220.9" width="9" height="150.3" rx="4.5" fill="#211710"/><rect x="833.0" y="270.6" width="9" height="50.9" rx="4.5" fill="#211710"/><rect x="850.0" y="283.0" width="9" height="26.0" rx="4.5" fill="#211710"/><rect x="867.0" y="283.0" width="9" height="26.0" rx="4.5" fill="#211710"/></g></svg>