<svg xmlns="http://www.w3.org/2000/svg" width="390" height="844" viewBox="0 0 390 844">
   <rect width="390" height="844" rx="0" fill="#000000"/><g><text x="20" y="64" font-family="Inter, 'Helvetica Neue', Arial, sans-serif" font-size="30" font-weight="400" fill="#ECECEC">‹</text><text x="52" y="60" font-family="Inter, 'Helvetica Neue', Arial, sans-serif" font-size="20" font-weight="600" fill="#ECECEC">Dövme Oluştur</text></g><text x="195" y="150" font-family="Inter, 'Helvetica Neue', Arial, sans-serif" font-size="12" font-weight="600" fill="#FF4D4D" text-anchor="middle" letter-spacing="2">DİNLİYORUM…</text><text x="195" y="215" font-family="ui-monospace, 'SF Mono', Menlo, monospace" font-size="56" font-weight="700" fill="#ECECEC" text-anchor="middle">0:07</text><rect x="90.0" y="274.5" width="6" height="21.0" rx="3" fill="#FF4D4DE6"/><rect x="102.0" y="264.0" width="6" height="42.0" rx="3" fill="#FF4D4DE6"/><rect x="114.0" y="253.5" width="6" height="63.0" rx="3" fill="#FF4D4DE6"/><rect x="126.0" y="267.5" width="6" height="35.0" rx="3" fill="#FF4D4DE6"/><rect x="138.0" y="257.0" width="6" height="56.0" rx="3" fill="#FF4D4DE6"/><rect x="150.0" y="250.0" width="6" height="70.0" rx="3" fill="#FF4D4DE6"/><rect x="162.0" y="260.5" width="6" height="49.0" rx="3" fill="#FF4D4DE6"/><rect x="174.0" y="271.0" width="6" height="28.0" rx="3" fill="#FF4D4DE6"/><rect x="186.0" y="264.0" width="6" height="42.0" rx="3" fill="#FF4D4DE6"/><rect x="198.0" y="255.3" width="6" height="59.5" rx="3" fill="#FF4D4DE6"/><rect x="210.0" y="267.5" width="6" height="35.0" rx="3" fill="#FF4D4DE6"/><rect x="222.0" y="260.5" width="6" height="49.0" rx="3" fill="#FF4D4DE6"/><rect x="234.0" y="251.8" width="6" height="66.5" rx="3" fill="#FF4D4DE6"/><rect x="246.0" y="264.0" width="6" height="42.0" rx="3" fill="#FF4D4DE6"/><rect x="258.0" y="272.8" width="6" height="24.5" rx="3" fill="#FF4D4DE6"/><rect x="270.0" y="265.8" width="6" height="38.5" rx="3" fill="#FF4D4DE6"/><rect x="282.0" y="257.0" width="6" height="56.0" rx="3" fill="#FF4D4DE6"/><rect x="294.0" y="267.5" width="6" height="35.0" rx="3" fill="#FF4D4DE6"/><circle cx="195" cy="470" r="78" fill="#FF4D4D" fill-opacity="0.16"/><circle cx="195" cy="470" r="56" fill="#FF4D4D"/><rect x="180" y="455" width="30" height="30" rx="8" fill="#FFFFFF"/><text x="195" y="580" font-family="Inter, 'Helvetica Neue', Arial, sans-serif" font-size="17" font-weight="600" fill="#ECECEC" text-anchor="middle">Kaydı Durdur</text><text x="195" y="608" font-family="Inter, 'Helvetica Neue', Arial, sans-serif" font-size="13" font-weight="400" fill="#6E6E76" text-anchor="middle">En fazla 30 sn · istediğinde durdur</text><rect x="135" y="638" width="120" height="44" rx="22" fill="none" stroke="#2E2E34" stroke-width="1.5"/><text x="195" y="666" font-family="Inter, 'Helvetica Neue', Arial, sans-serif" font-size="14" font-weight="600" fill="#A0A0A6" text-anchor="middle">İptal</text></svg>